/home/xinjie/Newton_Connection/Newton/phystwin_bridge/tools/core/newton_import_ir.py:1209: UserWarning: tabletop_table_box: PhysTwin ground collide_elas is present in IR, but native Newton SemiImplicit has no direct 1-to-1 restitution field for particle-vs-shape contacts. Ground bounce will therefore use native Newton ground ke/kd/kf defaults unless --ground-restitution-mode=approximate-native is selected.
  warnings.warn(message)
ffmpeg version 6.1.1-3ubuntu5+esm7 Copyright (c) 2000-2023 the FFmpeg developers
  built with gcc 13 (Ubuntu 13.3.0-6ubuntu2~24.04)
  configuration: --prefix=/usr --extra-version=3ubuntu5+esm7 --toolchain=hardened --libdir=/usr/lib/x86_64-linux-gnu --incdir=/usr/include/x86_64-linux-gnu --arch=amd64 --enable-gpl --disable-stripping --disable-omx --enable-gnutls --enable-libaom --enable-libass --enable-libbs2b --enable-libcaca --enable-libcdio --enable-libcodec2 --enable-libdav1d --enable-libflite --enable-libfontconfig --enable-libfreetype --enable-libfribidi --enable-libglslang --enable-libgme --enable-libgsm --enable-libharfbuzz --enable-libmp3lame --enable-libmysofa --enable-libopenjpeg --enable-libopenmpt --enable-libopus --enable-librubberband --enable-libshine --enable-libsnappy --enable-libsoxr --enable-libspeex --enable-libtheora --enable-libtwolame --enable-libvidstab --enable-libvorbis --enable-libvpx --enable-libwebp --enable-libx265 --enable-libxml2 --enable-libxvid --enable-libzimg --enable-openal --enable-opencl --enable-opengl --disable-sndio --enable-libvpl --disable-libmfx --enable-libdc1394 --enable-libdrm --enable-libiec61883 --enable-chromaprint --enable-frei0r --enable-ladspa --enable-libbluray --enable-libjack --enable-libpulse --enable-librabbitmq --enable-librist --enable-libsrt --enable-libssh --enable-libsvtav1 --enable-libx264 --enable-libzmq --enable-libzvbi --enable-lv2 --enable-sdl2 --enable-libplacebo --enable-librav1e --enable-pocketsphinx --enable-librsvg --enable-libjxl --enable-shared
  libavutil      58. 29.100 / 58. 29.100
  libavcodec     60. 31.102 / 60. 31.102
  libavformat    60. 16.100 / 60. 16.100
  libavdevice    60.  3.100 / 60.  3.100
  libavfilter     9. 12.100 /  9. 12.100
  libswscale      7.  5.100 /  7.  5.100
  libswresample   4. 12.100 /  4. 12.100
  libpostproc    57.  3.100 / 57.  3.100
Input #0, rawvideo, from 'fd:':
  Duration: N/A, start: 0.000000, bitrate: 663552 kb/s
  Stream #0:0: Video: rawvideo (RGB[24] / 0x18424752), rgb24, 1280x720, 663552 kb/s, 30 tbr, 30 tbn
Stream mapping:
  Stream #0:0 -> #0:0 (rawvideo (native) -> h264 (libx264))
[libx264 @ 0x5e0ad4103480] using cpu capabilities: MMX2 SSE2Fast SSSE3 SSE4.2 AVX FMA3 BMI2 AVX2
[libx264 @ 0x5e0ad4103480] profile High, level 3.1, 4:2:0, 8-bit
[libx264 @ 0x5e0ad4103480] 264 - core 164 r3108 31e19f9 - H.264/MPEG-4 AVC codec - Copyleft 2003-2023 - http://www.videolan.org/x264.html - options: cabac=1 ref=3 deblock=1:0:0 analyse=0x3:0x113 me=hex subme=7 psy=1 psy_rd=1.00:0.00 mixed_ref=1 me_range=16 chroma_me=1 trellis=1 8x8dct=1 cqm=0 deadzone=21,11 fast_pskip=1 chroma_qp_offset=-2 threads=22 lookahead_threads=3 sliced_threads=0 nr=0 decimate=1 interlaced=0 bluray_compat=0 constrained_intra=0 bframes=3 b_pyramid=2 b_adapt=1 b_bias=0 direct=1 weightb=1 open_gop=0 weightp=2 keyint=250 keyint_min=25 scenecut=40 intra_refresh=0 rc_lookahead=40 rc=crf mbtree=1 crf=18.0 qcomp=0.60 qpmin=0 qpmax=69 qpstep=4 ip_ratio=1.40 aq=1:1.00
Output #0, mp4, to '/home/xinjie/Newton_Connection/Newton/phystwin_bridge/results/robot_rope_franka/candidates/20260403_000517_physradius0p25_c16/presentation/work/robot_rope_tabletop_hero.mp4':
  Metadata:
    encoder         : Lavf60.16.100
  Stream #0:0: Video: h264 (avc1 / 0x31637661), yuv420p(tv, progressive), 1280x720, q=2-31, 30 fps, 15360 tbn
    Metadata:
      encoder         : Lavc60.31.102 libx264
    Side data:
      cpb: bitrate max/min/avg: 0/0/0 buffer size: 0 vbv_delay: N/A
frame=    0 fps=0.0 q=0.0 size=       0kB time=N/A bitrate=N/A speed=N/A    frame=   38 fps=0.0 q=24.0 size=       0kB time=00:00:01.20 bitrate=   0.3kbits/s speed=2.37x    [out#0/mp4 @ 0x5e0ad4101c80] video:700kB audio:0kB subtitle:0kB other streams:0kB global headers:0kB muxing overhead: 0.430375%
frame=  186 fps=0.0 q=-1.0 Lsize=     703kB time=00:00:06.10 bitrate= 943.8kbits/s speed=6.58x    
[libx264 @ 0x5e0ad4103480] frame I:1     Avg QP: 9.26  size: 86964
[libx264 @ 0x5e0ad4103480] frame P:47    Avg QP:16.71  size:  7414
[libx264 @ 0x5e0ad4103480] frame B:138   Avg QP:22.47  size:  2032
[libx264 @ 0x5e0ad4103480] consecutive B-frames:  0.5%  1.1%  1.6% 96.8%
[libx264 @ 0x5e0ad4103480] mb I  I16..4: 45.6% 12.0% 42.4%
[libx264 @ 0x5e0ad4103480] mb P  I16..4:  0.2%  0.4%  0.3%  P16..4:  4.1%  2.9%  2.3%  0.0%  0.0%    skip:89.7%
[libx264 @ 0x5e0ad4103480] mb B  I16..4:  0.0%  0.0%  0.0%  B16..8:  3.5%  1.5%  0.6%  direct: 0.6%  skip:93.7%  L0:35.9% L1:39.3% BI:24.8%
[libx264 @ 0x5e0ad4103480] 8x8 transform intra:26.0% inter:18.2%
[libx264 @ 0x5e0ad4103480] coded y,uvDC,uvAC intra: 35.5% 42.3% 36.8% inter: 2.2% 0.6% 0.3%
[libx264 @ 0x5e0ad4103480] i16 v,h,dc,p: 78% 11%  7%  3%
[libx264 @ 0x5e0ad4103480] i8 v,h,dc,ddl,ddr,vr,hd,vl,hu: 20% 14% 40%  2% 10%  6%  4%  1%  5%
[libx264 @ 0x5e0ad4103480] i4 v,h,dc,ddl,ddr,vr,hd,vl,hu: 20% 30% 18%  2%  7%  6%  8%  1%  8%
[libx264 @ 0x5e0ad4103480] i8c dc,h,v,p: 67% 18% 12%  3%
[libx264 @ 0x5e0ad4103480] Weighted P-Frames: Y:0.0% UV:0.0%
[libx264 @ 0x5e0ad4103480] ref P L0: 66.2% 12.5% 16.2%  5.0%
[libx264 @ 0x5e0ad4103480] ref B L0: 84.7% 13.1%  2.2%
[libx264 @ 0x5e0ad4103480] ref B L1: 93.5%  6.5%
[libx264 @ 0x5e0ad4103480] kb/s:923.74
/home/xinjie/Newton_Connection/Newton/phystwin_bridge/tools/core/newton_import_ir.py:1209: UserWarning: tabletop_table_box: PhysTwin ground collide_elas is present in IR, but native Newton SemiImplicit has no direct 1-to-1 restitution field for particle-vs-shape contacts. Ground bounce will therefore use native Newton ground ke/kd/kf defaults unless --ground-restitution-mode=approximate-native is selected.
  warnings.warn(message)
ffmpeg version 6.1.1-3ubuntu5+esm7 Copyright (c) 2000-2023 the FFmpeg developers
  built with gcc 13 (Ubuntu 13.3.0-6ubuntu2~24.04)
  configuration: --prefix=/usr --extra-version=3ubuntu5+esm7 --toolchain=hardened --libdir=/usr/lib/x86_64-linux-gnu --incdir=/usr/include/x86_64-linux-gnu --arch=amd64 --enable-gpl --disable-stripping --disable-omx --enable-gnutls --enable-libaom --enable-libass --enable-libbs2b --enable-libcaca --enable-libcdio --enable-libcodec2 --enable-libdav1d --enable-libflite --enable-libfontconfig --enable-libfreetype --enable-libfribidi --enable-libglslang --enable-libgme --enable-libgsm --enable-libharfbuzz --enable-libmp3lame --enable-libmysofa --enable-libopenjpeg --enable-libopenmpt --enable-libopus --enable-librubberband --enable-libshine --enable-libsnappy --enable-libsoxr --enable-libspeex --enable-libtheora --enable-libtwolame --enable-libvidstab --enable-libvorbis --enable-libvpx --enable-libwebp --enable-libx265 --enable-libxml2 --enable-libxvid --enable-libzimg --enable-openal --enable-opencl --enable-opengl --disable-sndio --enable-libvpl --disable-libmfx --enable-libdc1394 --enable-libdrm --enable-libiec61883 --enable-chromaprint --enable-frei0r --enable-ladspa --enable-libbluray --enable-libjack --enable-libpulse --enable-librabbitmq --enable-librist --enable-libsrt --enable-libssh --enable-libsvtav1 --enable-libx264 --enable-libzmq --enable-libzvbi --enable-lv2 --enable-sdl2 --enable-libplacebo --enable-librav1e --enable-pocketsphinx --enable-librsvg --enable-libjxl --enable-shared
  libavutil      58. 29.100 / 58. 29.100
  libavcodec     60. 31.102 / 60. 31.102
  libavformat    60. 16.100 / 60. 16.100
  libavdevice    60.  3.100 / 60.  3.100
  libavfilter     9. 12.100 /  9. 12.100
  libswscale      7.  5.100 /  7.  5.100
  libswresample   4. 12.100 /  4. 12.100
  libpostproc    57.  3.100 / 57.  3.100
Input #0, rawvideo, from 'fd:':
  Duration: N/A, start: 0.000000, bitrate: 663552 kb/s
  Stream #0:0: Video: rawvideo (RGB[24] / 0x18424752), rgb24, 1280x720, 663552 kb/s, 30 tbr, 30 tbn
Stream mapping:
  Stream #0:0 -> #0:0 (rawvideo (native) -> h264 (libx264))
[libx264 @ 0x57c1d7c12480] using cpu capabilities: MMX2 SSE2Fast SSSE3 SSE4.2 AVX FMA3 BMI2 AVX2
[libx264 @ 0x57c1d7c12480] profile High, level 3.1, 4:2:0, 8-bit
[libx264 @ 0x57c1d7c12480] 264 - core 164 r3108 31e19f9 - H.264/MPEG-4 AVC codec - Copyleft 2003-2023 - http://www.videolan.org/x264.html - options: cabac=1 ref=3 deblock=1:0:0 analyse=0x3:0x113 me=hex subme=7 psy=1 psy_rd=1.00:0.00 mixed_ref=1 me_range=16 chroma_me=1 trellis=1 8x8dct=1 cqm=0 deadzone=21,11 fast_pskip=1 chroma_qp_offset=-2 threads=22 lookahead_threads=3 sliced_threads=0 nr=0 decimate=1 interlaced=0 bluray_compat=0 constrained_intra=0 bframes=3 b_pyramid=2 b_adapt=1 b_bias=0 direct=1 weightb=1 open_gop=0 weightp=2 keyint=250 keyint_min=25 scenecut=40 intra_refresh=0 rc_lookahead=40 rc=crf mbtree=1 crf=18.0 qcomp=0.60 qpmin=0 qpmax=69 qpstep=4 ip_ratio=1.40 aq=1:1.00
Output #0, mp4, to '/home/xinjie/Newton_Connection/Newton/phystwin_bridge/results/robot_rope_franka/candidates/20260403_000517_physradius0p25_c16/debug/work/robot_rope_tabletop_hero_debug.mp4':
  Metadata:
    encoder         : Lavf60.16.100
  Stream #0:0: Video: h264 (avc1 / 0x31637661), yuv420p(tv, progressive), 1280x720, q=2-31, 30 fps, 15360 tbn
    Metadata:
      encoder         : Lavc60.31.102 libx264
    Side data:
      cpb: bitrate max/min/avg: 0/0/0 buffer size: 0 vbv_delay: N/A
frame=    0 fps=0.0 q=0.0 size=       0kB time=N/A bitrate=N/A speed=N/A    frame=    0 fps=0.0 q=0.0 size=       0kB time=N/A bitrate=N/A speed=N/A    frame=    0 fps=0.0 q=0.0 size=       0kB time=N/A bitrate=N/A speed=N/A    frame=    0 fps=0.0 q=0.0 size=       0kB time=N/A bitrate=N/A speed=N/A    frame=    0 fps=0.0 q=0.0 size=       0kB time=N/A bitrate=N/A speed=N/A    frame=    0 fps=0.0 q=0.0 size=       0kB time=N/A bitrate=N/A speed=N/A    frame=    0 fps=0.0 q=0.0 size=       0kB time=N/A bitrate=N/A speed=N/A    frame=    0 fps=0.0 q=0.0 size=       0kB time=N/A bitrate=N/A speed=N/A    frame=    0 fps=0.0 q=0.0 size=       0kB time=N/A bitrate=N/A speed=N/A    frame=    0 fps=0.0 q=0.0 size=       0kB time=N/A bitrate=N/A speed=N/A    frame=    0 fps=0.0 q=24.0 size=       0kB time=-00:00:00.06 bitrate=  -0.0kbits/s speed=N/A    frame=    6 fps=1.0 q=24.0 size=       0kB time=00:00:00.13 bitrate=   2.9kbits/s speed=0.0224x    frame=   13 fps=2.0 q=24.0 size=       0kB time=00:00:00.36 bitrate=   1.0kbits/s speed=0.056x    frame=   20 fps=2.8 q=24.0 size=       0kB time=00:00:00.60 bitrate=   0.6kbits/s speed=0.0843x    frame=   26 fps=3.4 q=24.0 size=       0kB time=00:00:00.80 bitrate=   0.5kbits/s speed=0.105x    frame=   32 fps=3.9 q=24.0 size=       0kB time=00:00:01.00 bitrate=   0.4kbits/s speed=0.123x    frame=   38 fps=4.4 q=24.0 size=       0kB time=00:00:01.20 bitrate=   0.3kbits/s speed=0.139x    frame=   45 fps=4.9 q=24.0 size=       0kB time=00:00:01.43 bitrate=   0.3kbits/s speed=0.156x    frame=   51 fps=5.3 q=24.0 size=       0kB time=00:00:01.63 bitrate=   0.2kbits/s speed=0.168x    frame=   57 fps=5.6 q=24.0 size=       0kB time=00:00:01.83 bitrate=   0.2kbits/s speed=0.179x    frame=   63 fps=5.9 q=24.0 size=       0kB time=00:00:02.03 bitrate=   0.2kbits/s speed=0.189x    frame=   70 fps=6.2 q=24.0 size=       0kB time=00:00:02.26 bitrate=   0.2kbits/s speed= 0.2x    frame=   77 fps=6.5 q=24.0 size=       0kB time=00:00:02.50 bitrate=   0.2kbits/s speed=0.21x    frame=   83 fps=6.7 q=24.0 size=     256kB time=00:00:02.70 bitrate= 776.9kbits/s speed=0.217x    frame=   89 fps=6.9 q=24.0 size=     256kB time=00:00:02.90 bitrate= 723.3kbits/s speed=0.224x    frame=   96 fps=7.1 q=24.0 size=     256kB time=00:00:03.13 bitrate= 669.4kbits/s speed=0.232x    frame=  103 fps=7.3 q=24.0 size=     256kB time=00:00:03.36 bitrate= 623.0kbits/s speed=0.239x    frame=  110 fps=7.5 q=24.0 size=     256kB time=00:00:03.60 bitrate= 582.6kbits/s speed=0.245x    frame=  116 fps=7.6 q=24.0 size=     256kB time=00:00:03.80 bitrate= 552.0kbits/s speed=0.25x    [out#0/mp4 @ 0x57c1d7c10c80] video:660kB audio:0kB subtitle:0kB other streams:0kB global headers:0kB muxing overhead: 0.456061%
frame=  186 fps= 12 q=-1.0 Lsize=     663kB time=00:00:06.10 bitrate= 890.9kbits/s speed=0.391x    
[libx264 @ 0x57c1d7c12480] frame I:1     Avg QP:10.22  size: 50597
[libx264 @ 0x57c1d7c12480] frame P:48    Avg QP:17.70  size:  7755
[libx264 @ 0x57c1d7c12480] frame B:137   Avg QP:23.80  size:  1844
[libx264 @ 0x57c1d7c12480] consecutive B-frames:  0.5%  3.2%  1.6% 94.6%
[libx264 @ 0x57c1d7c12480] mb I  I16..4: 50.3% 27.6% 22.1%
[libx264 @ 0x57c1d7c12480] mb P  I16..4:  0.2%  0.2%  0.4%  P16..4:  3.6%  2.7%  2.5%  0.0%  0.0%    skip:90.5%
[libx264 @ 0x57c1d7c12480] mb B  I16..4:  0.0%  0.0%  0.0%  B16..8:  2.8%  1.3%  0.6%  direct: 0.6%  skip:94.5%  L0:33.8% L1:41.3% BI:25.0%
[libx264 @ 0x57c1d7c12480] 8x8 transform intra:30.0% inter:20.3%
[libx264 @ 0x57c1d7c12480] coded y,uvDC,uvAC intra: 25.3% 23.1% 14.5% inter: 2.2% 0.6% 0.3%
[libx264 @ 0x57c1d7c12480] i16 v,h,dc,p: 80% 12%  6%  2%
[libx264 @ 0x57c1d7c12480] i8 v,h,dc,ddl,ddr,vr,hd,vl,hu: 32% 14% 46%  1%  2%  1%  1%  1%  2%
[libx264 @ 0x57c1d7c12480] i4 v,h,dc,ddl,ddr,vr,hd,vl,hu: 26% 27% 15%  3%  7%  7%  5%  4%  6%
[libx264 @ 0x57c1d7c12480] i8c dc,h,v,p: 72% 19%  8%  1%
[libx264 @ 0x57c1d7c12480] Weighted P-Frames: Y:0.0% UV:0.0%
[libx264 @ 0x57c1d7c12480] ref P L0: 67.3% 15.7% 12.9%  4.1%
[libx264 @ 0x57c1d7c12480] ref B L0: 87.3% 10.7%  2.0%
[libx264 @ 0x57c1d7c12480] ref B L1: 95.3%  4.7%
[libx264 @ 0x57c1d7c12480] kb/s:871.66
/home/xinjie/Newton_Connection/Newton/phystwin_bridge/tools/core/newton_import_ir.py:1209: UserWarning: tabletop_table_box: PhysTwin ground collide_elas is present in IR, but native Newton SemiImplicit has no direct 1-to-1 restitution field for particle-vs-shape contacts. Ground bounce will therefore use native Newton ground ke/kd/kf defaults unless --ground-restitution-mode=approximate-native is selected.
  warnings.warn(message)
ffmpeg version 6.1.1-3ubuntu5+esm7 Copyright (c) 2000-2023 the FFmpeg developers
  built with gcc 13 (Ubuntu 13.3.0-6ubuntu2~24.04)
  configuration: --prefix=/usr --extra-version=3ubuntu5+esm7 --toolchain=hardened --libdir=/usr/lib/x86_64-linux-gnu --incdir=/usr/include/x86_64-linux-gnu --arch=amd64 --enable-gpl --disable-stripping --disable-omx --enable-gnutls --enable-libaom --enable-libass --enable-libbs2b --enable-libcaca --enable-libcdio --enable-libcodec2 --enable-libdav1d --enable-libflite --enable-libfontconfig --enable-libfreetype --enable-libfribidi --enable-libglslang --enable-libgme --enable-libgsm --enable-libharfbuzz --enable-libmp3lame --enable-libmysofa --enable-libopenjpeg --enable-libopenmpt --enable-libopus --enable-librubberband --enable-libshine --enable-libsnappy --enable-libsoxr --enable-libspeex --enable-libtheora --enable-libtwolame --enable-libvidstab --enable-libvorbis --enable-libvpx --enable-libwebp --enable-libx265 --enable-libxml2 --enable-libxvid --enable-libzimg --enable-openal --enable-opencl --enable-opengl --disable-sndio --enable-libvpl --disable-libmfx --enable-libdc1394 --enable-libdrm --enable-libiec61883 --enable-chromaprint --enable-frei0r --enable-ladspa --enable-libbluray --enable-libjack --enable-libpulse --enable-librabbitmq --enable-librist --enable-libsrt --enable-libssh --enable-libsvtav1 --enable-libx264 --enable-libzmq --enable-libzvbi --enable-lv2 --enable-sdl2 --enable-libplacebo --enable-librav1e --enable-pocketsphinx --enable-librsvg --enable-libjxl --enable-shared
  libavutil      58. 29.100 / 58. 29.100
  libavcodec     60. 31.102 / 60. 31.102
  libavformat    60. 16.100 / 60. 16.100
  libavdevice    60.  3.100 / 60.  3.100
  libavfilter     9. 12.100 /  9. 12.100
  libswscale      7.  5.100 /  7.  5.100
  libswresample   4. 12.100 /  4. 12.100
  libpostproc    57.  3.100 / 57.  3.100
Input #0, rawvideo, from 'fd:':
  Duration: N/A, start: 0.000000, bitrate: 663552 kb/s
  Stream #0:0: Video: rawvideo (RGB[24] / 0x18424752), rgb24, 1280x720, 663552 kb/s, 30 tbr, 30 tbn
Stream mapping:
  Stream #0:0 -> #0:0 (rawvideo (native) -> h264 (libx264))
[libx264 @ 0x5f8f213fa480] using cpu capabilities: MMX2 SSE2Fast SSSE3 SSE4.2 AVX FMA3 BMI2 AVX2
[libx264 @ 0x5f8f213fa480] profile High, level 3.1, 4:2:0, 8-bit
[libx264 @ 0x5f8f213fa480] 264 - core 164 r3108 31e19f9 - H.264/MPEG-4 AVC codec - Copyleft 2003-2023 - http://www.videolan.org/x264.html - options: cabac=1 ref=3 deblock=1:0:0 analyse=0x3:0x113 me=hex subme=7 psy=1 psy_rd=1.00:0.00 mixed_ref=1 me_range=16 chroma_me=1 trellis=1 8x8dct=1 cqm=0 deadzone=21,11 fast_pskip=1 chroma_qp_offset=-2 threads=22 lookahead_threads=3 sliced_threads=0 nr=0 decimate=1 interlaced=0 bluray_compat=0 constrained_intra=0 bframes=3 b_pyramid=2 b_adapt=1 b_bias=0 direct=1 weightb=1 open_gop=0 weightp=2 keyint=250 keyint_min=25 scenecut=40 intra_refresh=0 rc_lookahead=40 rc=crf mbtree=1 crf=18.0 qcomp=0.60 qpmin=0 qpmax=69 qpstep=4 ip_ratio=1.40 aq=1:1.00
Output #0, mp4, to '/home/xinjie/Newton_Connection/Newton/phystwin_bridge/results/robot_rope_franka/candidates/20260403_000517_physradius0p25_c16/validation/work/robot_rope_tabletop_hero_validation.mp4':
  Metadata:
    encoder         : Lavf60.16.100
  Stream #0:0: Video: h264 (avc1 / 0x31637661), yuv420p(tv, progressive), 1280x720, q=2-31, 30 fps, 15360 tbn
    Metadata:
      encoder         : Lavc60.31.102 libx264
    Side data:
      cpb: bitrate max/min/avg: 0/0/0 buffer size: 0 vbv_delay: N/A
frame=    0 fps=0.0 q=0.0 size=       0kB time=N/A bitrate=N/A speed=N/A    frame=   31 fps=0.0 q=24.0 size=       0kB time=00:00:00.96 bitrate=   0.4kbits/s speed=1.93x    [out#0/mp4 @ 0x5f8f213f8c80] video:618kB audio:0kB subtitle:0kB other streams:0kB global headers:0kB muxing overhead: 0.487179%
frame=  186 fps=0.0 q=-1.0 Lsize=     621kB time=00:00:06.10 bitrate= 834.3kbits/s speed=6.48x    
[libx264 @ 0x5f8f213fa480] frame I:1     Avg QP: 9.71  size: 83026
[libx264 @ 0x5f8f213fa480] frame P:47    Avg QP:15.38  size:  6160
[libx264 @ 0x5f8f213fa480] frame B:138   Avg QP:23.00  size:  1882
[libx264 @ 0x5f8f213fa480] consecutive B-frames:  0.5%  1.1%  1.6% 96.8%
[libx264 @ 0x5f8f213fa480] mb I  I16..4: 40.2% 18.0% 41.8%
[libx264 @ 0x5f8f213fa480] mb P  I16..4:  0.1%  0.3%  0.2%  P16..4:  3.0%  2.1%  1.8%  0.0%  0.0%    skip:92.4%
[libx264 @ 0x5f8f213fa480] mb B  I16..4:  0.0%  0.1%  0.0%  B16..8:  2.8%  1.1%  0.5%  direct: 0.5%  skip:94.9%  L0:34.6% L1:38.8% BI:26.6%
[libx264 @ 0x5f8f213fa480] 8x8 transform intra:31.6% inter:17.9%
[libx264 @ 0x5f8f213fa480] coded y,uvDC,uvAC intra: 30.6% 40.3% 36.4% inter: 1.9% 0.5% 0.2%
[libx264 @ 0x5f8f213fa480] i16 v,h,dc,p: 82%  8%  9%  2%
[libx264 @ 0x5f8f213fa480] i8 v,h,dc,ddl,ddr,vr,hd,vl,hu: 23%  8% 54%  1%  4%  6%  2%  0%  2%
[libx264 @ 0x5f8f213fa480] i4 v,h,dc,ddl,ddr,vr,hd,vl,hu: 26% 31% 15%  1%  6%  6%  7%  1%  7%
[libx264 @ 0x5f8f213fa480] i8c dc,h,v,p: 69% 16% 13%  2%
[libx264 @ 0x5f8f213fa480] Weighted P-Frames: Y:0.0% UV:0.0%
[libx264 @ 0x5f8f213fa480] ref P L0: 64.8% 13.4% 16.1%  5.8%
[libx264 @ 0x5f8f213fa480] ref B L0: 85.7% 12.1%  2.2%
[libx264 @ 0x5f8f213fa480] ref B L1: 94.3%  5.7%
[libx264 @ 0x5f8f213fa480] kb/s:815.93
